# xmcd
#
# Track frame offsets:
#	150
#	12233
#	28151
#	39136
#	53381
#	69443
#	86069
#	102859
#	114816
#	125675
#	136770
#	150408
#
# Disc length: 2193 seconds
#
# Revision: 0
# Processed by: cddbd v1.5.2PL0 Copyright (c) Steve Scherf et al.
# Submitted via: audiograbber 1.83.01
#
DISCID=86088f0c
DTITLE=Frank Aguiar - Frank Aguiar - (2002) O melhor de Frank Aguiar
DYEAR=2002
DGENRE=Forró
TTITLE0=Eu só quero um xodó
TTITLE1=Mulher madura
TTITLE2=Vem me dar amor
TTITLE3=Comendo água
TTITLE4=O hino das loiras
TTITLE5=Morango do nordeste
TTITLE6=Prenda (Tô feito um bode)
TTITLE7=Homenagem às sogras
TTITLE8=Melô do pitbull
TTITLE9=A garagem da vizinha
TTITLE10=Forró do camelô
TTITLE11=O amor rolou
EXTD=By DJ Cerbola
EXTT0=
EXTT1=
EXTT2=
EXTT3=
EXTT4=
EXTT5=
EXTT6=
EXTT7=
EXTT8=
EXTT9=
EXTT10=
EXTT11=
PLAYORDER=
